<svg width="19" height="18" viewBox="0 0 19 18" fill="none" xmlns="http://www.w3.org/2000/svg">
<path d="M17.2727 7.36364H11.1363V1.22727C11.1363 0.549816 10.5865 0 9.90904 0H9.09091C8.41345 0 7.86364 0.549816 7.86364 1.22727V7.36364H1.72727C1.04982 7.36364 0.5 7.91345 0.5 8.59091V9.40904C0.5 10.0865 1.04982 10.6363 1.72727 10.6363H7.86364V16.7727C7.86364 17.4501 8.41345 18 9.09091 18H9.90904C10.5865 18 11.1363 17.4501 11.1363 16.7727V10.6363H17.2727C17.9501 10.6363 18.5 10.0865 18.5 9.40904V8.59091C18.5 7.91345 17.9501 7.36364 17.2727 7.36364Z" fill="white"/>
</svg>
