<svg width="46" height="46" viewBox="0 0 46 46" fill="none" xmlns="http://www.w3.org/2000/svg">
<g clip-path="url(#clip0)">
<path d="M35.8804 2.4481H21.7568C20.8629 2.4481 20.0044 2.80398 19.3719 3.43645L0.987928 21.8171C-0.329309 23.1343 -0.329309 25.2695 0.987928 26.5885L15.1115 40.7121C16.4288 42.0293 18.564 42.0293 19.8813 40.7121L38.2652 22.3315C38.8977 21.6973 39.2536 20.8388 39.2536 19.9432V5.82131C39.2536 3.95761 37.7441 2.4481 35.8804 2.4481ZM29.9773 14.2543C28.5808 14.2543 27.4474 13.1209 27.4474 11.7244C27.4474 10.3279 28.5808 9.19452 29.9773 9.19452C31.3738 9.19452 32.5072 10.3279 32.5072 11.7244C32.5072 13.1209 31.3738 14.2543 29.9773 14.2543Z" fill="url(#paint0_linear)"/>
<path d="M42.6271 5.82131L42.6254 21.5219C42.6254 22.2994 42.3168 23.0466 41.7653 23.5964L23.0844 42.2772L23.3712 42.564C24.6884 43.8812 26.8236 43.8812 28.1409 42.564L45.0103 25.6979C45.6444 25.0655 46.0003 24.207 46.0003 23.3131V9.19452C46.0003 7.33082 44.4908 5.82131 42.6271 5.82131Z" fill="url(#paint1_linear)"/>
</g>
<defs>
<linearGradient id="paint0_linear" x1="0.857481" y1="-5.40227" x2="31.8441" y2="18.699" gradientUnits="userSpaceOnUse">
<stop stop-color="#6EE300"/>
<stop offset="1" stop-color="#26A480"/>
</linearGradient>
<linearGradient id="paint1_linear" x1="23.585" y1="-1.7248" x2="47.3218" y2="9.48794" gradientUnits="userSpaceOnUse">
<stop stop-color="#6EE300"/>
<stop offset="1" stop-color="#26A480"/>
</linearGradient>
<clipPath id="clip0">
<rect width="46" height="46" fill="white"/>
</clipPath>
</defs>
</svg>
