<svg width="38" height="52" viewBox="0 0 38 52" fill="none" xmlns="http://www.w3.org/2000/svg">
<path d="M38 28.0875V21.9939C38 21.5321 37.6191 21.1582 37.1492 21.1582H30.1185V14.4998C30.1185 8.45018 26.3067 2.9706 20.5037 0.944972C9.92602 -2.7474 0 4.90554 0 14.7933V15.7634C0 16.2253 0.380924 16.5992 0.850773 16.5992H7.05397C7.5241 16.5992 7.90474 16.225 7.90474 15.7634V14.4606C7.90474 12.2608 9.50942 9.58889 11.5168 8.61322C16.8826 6.0053 22.2132 9.79921 22.2132 14.7936V21.1584H15.1827C14.7126 21.1584 14.332 21.5326 14.332 21.9942V28.0878C14.332 28.5496 14.7129 28.9235 15.1827 28.9235H22.2132V34.045H15.1827C14.7126 34.045 14.332 34.4192 14.332 34.8808V40.9743C14.332 41.4362 14.7129 41.8101 15.1827 41.8101H22.2132V51.1643C22.2132 51.6261 22.5941 52 23.064 52H29.2671C29.7373 52 30.1179 51.6258 30.1179 51.1643V41.8101H37.1487C37.6188 41.8101 37.9994 41.4359 37.9994 40.9743V34.8808C37.9994 34.4189 37.6185 34.045 37.1487 34.045H30.1179V28.9235H37.1487C37.6194 28.9235 38 28.549 38 28.0875Z" fill="#242424"/>
</svg>
