<svg id="Группа_1" data-name="Группа 1" xmlns="http://www.w3.org/2000/svg" width="25" height="25" viewBox="0 0 25 25">
  <metadata><?xpacket begin="﻿" id="W5M0MpCehiHzreSzNTczkc9d"?>
<x:xmpmeta xmlns:x="adobe:ns:meta/" x:xmptk="Adobe XMP Core 5.6-c142 79.160924, 2017/07/13-01:06:39        ">
   <rdf:RDF xmlns:rdf="http://www.w3.org/1999/02/22-rdf-syntax-ns#">
      <rdf:Description rdf:about=""/>
   </rdf:RDF>
</x:xmpmeta>
                                                                                                    
                                                                                                    
                                                                                                    
                                                                                                    
                                                                                                    
                                                                                                    
                                                                                                    
                                                                                                    
                                                                                                    
                                                                                                    
                                                                                                    
                                                                                                    
                                                                                                    
                                                                                                    
                                                                                                    
                                                                                                    
                                                                                                    
                                                                                                    
                                                                                                    
                                                                                                    
                           
<?xpacket end="w"?></metadata>
<defs>
    <style>
      .cls-1 {
        fill: #606060;
      }

      .cls-2 {
        fill: #fff;
        fill-rule: evenodd;
      }
    </style>
  </defs>
  <circle class="cls-1" cx="12.5" cy="12.5" r="12.5"/>
  <path class="cls-2" d="M379.58,2413.19c0.415-.02.83-0.01,1.246-0.01H381v-2.09c-0.222-.02-0.454-0.06-0.686-0.07-0.426-.01-0.853-0.04-1.279-0.03a3.211,3.211,0,0,0-1.8.55,2.6,2.6,0,0,0-1.085,1.75,5.829,5.829,0,0,0-.075.89c-0.012.48,0,.94,0,1.42v0.17H374v2.34h2.054V2424h2.511v-5.88h2.047c0.105-.78.208-1.55,0.316-2.35h-2.38s0.006-1.16.02-1.66A0.882,0.882,0,0,1,379.58,2413.19Z" transform="translate(-365 -2405)"/>
</svg>
