<svg id="Группа_2" data-name="Группа 2" xmlns="http://www.w3.org/2000/svg" width="25" height="25" viewBox="0 0 25 25">
  <metadata><?xpacket begin="﻿" id="W5M0MpCehiHzreSzNTczkc9d"?>
<x:xmpmeta xmlns:x="adobe:ns:meta/" x:xmptk="Adobe XMP Core 5.6-c142 79.160924, 2017/07/13-01:06:39        ">
   <rdf:RDF xmlns:rdf="http://www.w3.org/1999/02/22-rdf-syntax-ns#">
      <rdf:Description rdf:about=""/>
   </rdf:RDF>
</x:xmpmeta>
                                                                                                    
                                                                                                    
                                                                                                    
                                                                                                    
                                                                                                    
                                                                                                    
                                                                                                    
                                                                                                    
                                                                                                    
                                                                                                    
                                                                                                    
                                                                                                    
                                                                                                    
                                                                                                    
                                                                                                    
                                                                                                    
                                                                                                    
                                                                                                    
                                                                                                    
                                                                                                    
                           
<?xpacket end="w"?></metadata>
<defs>
    <style>
      .cls-1 {
        fill: #606060;
      }

      .cls-2 {
        fill: #fff;
        fill-rule: evenodd;
      }
    </style>
  </defs>
  <circle id="Ellipse_2_copy_2" data-name="Ellipse 2 copy 2" class="cls-1" cx="12.5" cy="12.5" r="12.5"/>
  <path class="cls-2" d="M582.136,2415.57H584.5V2423h-2.363v-7.43Zm10.119,0.68a2.511,2.511,0,0,0-1.969-.85,2.647,2.647,0,0,0-.821.12,1.879,1.879,0,0,0-.623.32,3.118,3.118,0,0,0-.4.39,3.877,3.877,0,0,0-.279.4v-1.06H585.8l0.008,0.36q0.006,0.36.007,2.22c0,1.24,0,2.86-.014,4.85h2.356v-4.14a1.906,1.906,0,0,1,.078-0.61,1.544,1.544,0,0,1,.455-0.64,1.141,1.141,0,0,1,.756-0.26,1,1,0,0,1,.906.45,2.21,2.21,0,0,1,.29,1.23V2423H593v-4.26A3.689,3.689,0,0,0,592.255,2416.25Zm-8.923-4.25a1.32,1.32,0,0,0-.963.36,1.251,1.251,0,0,0-.369.92,1.231,1.231,0,0,0,1.3,1.28h0.015a1.329,1.329,0,0,0,.97-0.36,1.23,1.23,0,0,0,.362-0.92,1.3,1.3,0,0,0-.366-0.92A1.282,1.282,0,0,0,583.332,2412Z" transform="translate(-575 -2405)"/>
</svg>
