<svg id="Группа_3" data-name="Группа 3" xmlns="http://www.w3.org/2000/svg" width="25" height="25" viewBox="0 0 25 25">
  <metadata><?xpacket begin="﻿" id="W5M0MpCehiHzreSzNTczkc9d"?>
<x:xmpmeta xmlns:x="adobe:ns:meta/" x:xmptk="Adobe XMP Core 5.6-c142 79.160924, 2017/07/13-01:06:39        ">
   <rdf:RDF xmlns:rdf="http://www.w3.org/1999/02/22-rdf-syntax-ns#">
      <rdf:Description rdf:about=""/>
   </rdf:RDF>
</x:xmpmeta>
                                                                                                    
                                                                                                    
                                                                                                    
                                                                                                    
                                                                                                    
                                                                                                    
                                                                                                    
                                                                                                    
                                                                                                    
                                                                                                    
                                                                                                    
                                                                                                    
                                                                                                    
                                                                                                    
                                                                                                    
                                                                                                    
                                                                                                    
                                                                                                    
                                                                                                    
                                                                                                    
                           
<?xpacket end="w"?></metadata>
<defs>
    <style>
      .cls-1 {
        fill: #606060;
      }

      .cls-2 {
        fill: #fff;
        fill-rule: evenodd;
      }
    </style>
  </defs>
  <circle id="Ellipse_2_copy_3" data-name="Ellipse 2 copy 3" class="cls-1" cx="12.5" cy="12.5" r="12.5"/>
  <path class="cls-2" d="M696.331,2411h-9.662a1.63,1.63,0,0,0-1.669,1.67v9.66a1.63,1.63,0,0,0,1.669,1.67h9.662a1.63,1.63,0,0,0,1.669-1.67v-9.66A1.63,1.63,0,0,0,696.331,2411Zm-2.446,2.03a0.592,0.592,0,0,1,.585-0.59h1.469a0.592,0.592,0,0,1,.585.59v1.4a0.592,0.592,0,0,1-.585.59H694.47a0.591,0.591,0,0,1-.585-0.59v-1.4Zm-2.373,1.91a2.531,2.531,0,1,1-2.61,2.53A2.57,2.57,0,0,1,691.512,2414.94Zm5.019,7.05a0.524,0.524,0,0,1-.517.52h-9.053a0.524,0.524,0,0,1-.517-0.52v-5.49h1.194a3.8,3.8,0,0,0-.166,1.11,4.042,4.042,0,0,0,8.081,0,3.8,3.8,0,0,0-.167-1.11h1.145v5.49Z" transform="translate(-679 -2405)"/>
</svg>
