<svg id="Группа_1" data-name="Группа 1" xmlns="http://www.w3.org/2000/svg" width="25" height="25" viewBox="0 0 25 25">
  <metadata><?xpacket begin="﻿" id="W5M0MpCehiHzreSzNTczkc9d"?>
<x:xmpmeta xmlns:x="adobe:ns:meta/" x:xmptk="Adobe XMP Core 5.6-c142 79.160924, 2017/07/13-01:06:39        ">
   <rdf:RDF xmlns:rdf="http://www.w3.org/1999/02/22-rdf-syntax-ns#">
      <rdf:Description rdf:about=""/>
   </rdf:RDF>
</x:xmpmeta>
                                                                                                    
                                                                                                    
                                                                                                    
                                                                                                    
                                                                                                    
                                                                                                    
                                                                                                    
                                                                                                    
                                                                                                    
                                                                                                    
                                                                                                    
                                                                                                    
                                                                                                    
                                                                                                    
                                                                                                    
                                                                                                    
                                                                                                    
                                                                                                    
                                                                                                    
                                                                                                    
                           
<?xpacket end="w"?></metadata>
<defs>
    <style>
      .cls-1 {
        fill: #606060;
      }

      .cls-2 {
        fill: #fff;
        fill-rule: evenodd;
      }
    </style>
  </defs>
  <circle id="Ellipse_2_copy" data-name="Ellipse 2 copy" class="cls-1" cx="12.5" cy="12.5" r="12.5"/>
  <path class="cls-2" d="M490.49,2413.87a1.348,1.348,0,0,0-1.4-.79c-0.719-.06-2.525-0.08-4.091-0.08s-3.375.02-4.093,0.07a1.36,1.36,0,0,0-1.4.8,8.308,8.308,0,0,0-.508,3.63h0a8.339,8.339,0,0,0,.508,3.63,1.386,1.386,0,0,0,1.4.8c0.719,0.04,2.526.07,4.094,0.07s3.372-.03,4.092-0.07a1.382,1.382,0,0,0,1.4-.8,8.3,8.3,0,0,0,.509-3.63h0A8.253,8.253,0,0,0,490.49,2413.87Zm-6.99,6.08v-4.9l3.75,2.45Z" transform="translate(-472 -2405)"/>
</svg>
